ISO-10303-21;
HEADER;
/* Generated by software containing ST-Developer
 * from STEP Tools, Inc. (www.steptools.com) 
 */
/* OPTION: using custom renumber hook */

FILE_DESCRIPTION(
/* description */ ('STEP AP242 Edition 2',
'CAx-IF Rec.Pracs.---Representation and Presentation of Product Manufa
cturing Information (PMI)---4.0---2014-10-13',
'CAx-IF Rec.Pracs.---3D Tessellated Geometry---0.4---2014-09-14','2;1',
'CAx-IF Rec.Pracs.---User Defined Attributes---1.5---2016-08-15'),
/* implementation_level */ '2;1');

FILE_NAME(
/* name */ 'v1 - v2_lid',
/* time_stamp */ '2026-05-19T16:26:33Z',
/* author */ (''),
/* organization */ (''),
/* preprocessor_version */ 'ST-DEVELOPER v20',
/* originating_system */ 'ONSHAPE BY PTC INC, 1.215',
/* authorisation */ '  ');

FILE_SCHEMA (('AP242_MANAGED_MODEL_BASED_3D_ENGINEERING_MIM_LF { 1 0 10303 442 3 1 4 }'));
ENDSEC;

DATA;
#10=SHAPE_REPRESENTATION_RELATIONSHIP('','',#421,#11);
#11=ADVANCED_BREP_SHAPE_REPRESENTATION('',(#419),#685);
#12=CIRCLE('',#426,0.00600256530425301);
#13=CIRCLE('',#427,0.00600256530425301);
#14=CIRCLE('',#432,0.00600256530425299);
#15=CIRCLE('',#433,0.00600256530425299);
#16=CIRCLE('',#438,0.006002565304253);
#17=CIRCLE('',#439,0.006002565304253);
#18=CIRCLE('',#444,0.00600256530425299);
#19=CIRCLE('',#445,0.00600256530425299);
#20=CIRCLE('',#447,0.001587462);
#21=CIRCLE('',#448,0.001587462);
#22=CIRCLE('',#450,0.00165);
#23=CIRCLE('',#451,0.00165);
#24=CIRCLE('',#454,0.001587462);
#25=CIRCLE('',#455,0.001587462);
#26=CYLINDRICAL_SURFACE('',#425,0.00600256530425301);
#27=CYLINDRICAL_SURFACE('',#431,0.00600256530425299);
#28=CYLINDRICAL_SURFACE('',#437,0.006002565304253);
#29=CYLINDRICAL_SURFACE('',#443,0.00600256530425299);
#30=CYLINDRICAL_SURFACE('',#446,0.001587462);
#31=CYLINDRICAL_SURFACE('',#449,0.00165);
#32=CYLINDRICAL_SURFACE('',#453,0.001587462);
#33=ORIENTED_EDGE('',*,*,#141,.T.);
#34=ORIENTED_EDGE('',*,*,#142,.F.);
#35=ORIENTED_EDGE('',*,*,#143,.F.);
#36=ORIENTED_EDGE('',*,*,#144,.T.);
#37=ORIENTED_EDGE('',*,*,#145,.T.);
#38=ORIENTED_EDGE('',*,*,#146,.F.);
#39=ORIENTED_EDGE('',*,*,#147,.F.);
#40=ORIENTED_EDGE('',*,*,#142,.T.);
#41=ORIENTED_EDGE('',*,*,#148,.T.);
#42=ORIENTED_EDGE('',*,*,#149,.F.);
#43=ORIENTED_EDGE('',*,*,#150,.F.);
#44=ORIENTED_EDGE('',*,*,#146,.T.);
#45=ORIENTED_EDGE('',*,*,#151,.T.);
#46=ORIENTED_EDGE('',*,*,#152,.F.);
#47=ORIENTED_EDGE('',*,*,#153,.F.);
#48=ORIENTED_EDGE('',*,*,#149,.T.);
#49=ORIENTED_EDGE('',*,*,#154,.T.);
#50=ORIENTED_EDGE('',*,*,#155,.F.);
#51=ORIENTED_EDGE('',*,*,#156,.F.);
#52=ORIENTED_EDGE('',*,*,#152,.T.);
#53=ORIENTED_EDGE('',*,*,#157,.T.);
#54=ORIENTED_EDGE('',*,*,#158,.F.);
#55=ORIENTED_EDGE('',*,*,#159,.F.);
#56=ORIENTED_EDGE('',*,*,#155,.T.);
#57=ORIENTED_EDGE('',*,*,#160,.T.);
#58=ORIENTED_EDGE('',*,*,#161,.F.);
#59=ORIENTED_EDGE('',*,*,#162,.F.);
#60=ORIENTED_EDGE('',*,*,#158,.T.);
#61=ORIENTED_EDGE('',*,*,#163,.T.);
#62=ORIENTED_EDGE('',*,*,#164,.F.);
#63=ORIENTED_EDGE('',*,*,#165,.F.);
#64=ORIENTED_EDGE('',*,*,#161,.T.);
#65=ORIENTED_EDGE('',*,*,#166,.T.);
#66=ORIENTED_EDGE('',*,*,#167,.F.);
#67=ORIENTED_EDGE('',*,*,#168,.F.);
#68=ORIENTED_EDGE('',*,*,#164,.T.);
#69=ORIENTED_EDGE('',*,*,#169,.T.);
#70=ORIENTED_EDGE('',*,*,#170,.F.);
#71=ORIENTED_EDGE('',*,*,#171,.F.);
#72=ORIENTED_EDGE('',*,*,#167,.T.);
#73=ORIENTED_EDGE('',*,*,#172,.T.);
#74=ORIENTED_EDGE('',*,*,#173,.F.);
#75=ORIENTED_EDGE('',*,*,#174,.F.);
#76=ORIENTED_EDGE('',*,*,#170,.T.);
#77=ORIENTED_EDGE('',*,*,#175,.T.);
#78=ORIENTED_EDGE('',*,*,#176,.F.);
#79=ORIENTED_EDGE('',*,*,#177,.F.);
#80=ORIENTED_EDGE('',*,*,#173,.T.);
#81=ORIENTED_EDGE('',*,*,#178,.T.);
#82=ORIENTED_EDGE('',*,*,#179,.F.);
#83=ORIENTED_EDGE('',*,*,#180,.F.);
#84=ORIENTED_EDGE('',*,*,#176,.T.);
#85=ORIENTED_EDGE('',*,*,#181,.T.);
#86=ORIENTED_EDGE('',*,*,#182,.F.);
#87=ORIENTED_EDGE('',*,*,#183,.F.);
#88=ORIENTED_EDGE('',*,*,#179,.T.);
#89=ORIENTED_EDGE('',*,*,#184,.T.);
#90=ORIENTED_EDGE('',*,*,#185,.F.);
#91=ORIENTED_EDGE('',*,*,#186,.F.);
#92=ORIENTED_EDGE('',*,*,#182,.T.);
#93=ORIENTED_EDGE('',*,*,#187,.T.);
#94=ORIENTED_EDGE('',*,*,#188,.F.);
#95=ORIENTED_EDGE('',*,*,#189,.F.);
#96=ORIENTED_EDGE('',*,*,#190,.T.);
#97=ORIENTED_EDGE('',*,*,#191,.T.);
#98=ORIENTED_EDGE('',*,*,#144,.F.);
#99=ORIENTED_EDGE('',*,*,#192,.F.);
#100=ORIENTED_EDGE('',*,*,#185,.T.);
#101=ORIENTED_EDGE('',*,*,#193,.T.);
#102=ORIENTED_EDGE('',*,*,#194,.F.);
#103=ORIENTED_EDGE('',*,*,#143,.T.);
#104=ORIENTED_EDGE('',*,*,#147,.T.);
#105=ORIENTED_EDGE('',*,*,#150,.T.);
#106=ORIENTED_EDGE('',*,*,#153,.T.);
#107=ORIENTED_EDGE('',*,*,#156,.T.);
#108=ORIENTED_EDGE('',*,*,#159,.T.);
#109=ORIENTED_EDGE('',*,*,#162,.T.);
#110=ORIENTED_EDGE('',*,*,#165,.T.);
#111=ORIENTED_EDGE('',*,*,#168,.T.);
#112=ORIENTED_EDGE('',*,*,#171,.T.);
#113=ORIENTED_EDGE('',*,*,#174,.T.);
#114=ORIENTED_EDGE('',*,*,#177,.T.);
#115=ORIENTED_EDGE('',*,*,#180,.T.);
#116=ORIENTED_EDGE('',*,*,#183,.T.);
#117=ORIENTED_EDGE('',*,*,#186,.T.);
#118=ORIENTED_EDGE('',*,*,#192,.T.);
#119=ORIENTED_EDGE('',*,*,#189,.T.);
#120=ORIENTED_EDGE('',*,*,#187,.F.);
#121=ORIENTED_EDGE('',*,*,#193,.F.);
#122=ORIENTED_EDGE('',*,*,#141,.F.);
#123=ORIENTED_EDGE('',*,*,#191,.F.);
#124=ORIENTED_EDGE('',*,*,#184,.F.);
#125=ORIENTED_EDGE('',*,*,#181,.F.);
#126=ORIENTED_EDGE('',*,*,#178,.F.);
#127=ORIENTED_EDGE('',*,*,#175,.F.);
#128=ORIENTED_EDGE('',*,*,#172,.F.);
#129=ORIENTED_EDGE('',*,*,#169,.F.);
#130=ORIENTED_EDGE('',*,*,#166,.F.);
#131=ORIENTED_EDGE('',*,*,#163,.F.);
#132=ORIENTED_EDGE('',*,*,#160,.F.);
#133=ORIENTED_EDGE('',*,*,#157,.F.);
#134=ORIENTED_EDGE('',*,*,#154,.F.);
#135=ORIENTED_EDGE('',*,*,#151,.F.);
#136=ORIENTED_EDGE('',*,*,#148,.F.);
#137=ORIENTED_EDGE('',*,*,#145,.F.);
#138=ORIENTED_EDGE('',*,*,#190,.F.);
#139=ORIENTED_EDGE('',*,*,#188,.T.);
#140=ORIENTED_EDGE('',*,*,#194,.T.);
#141=EDGE_CURVE('',#195,#196,#233,.T.);
#142=EDGE_CURVE('',#197,#196,#234,.T.);
#143=EDGE_CURVE('',#198,#197,#235,.T.);
#144=EDGE_CURVE('',#198,#195,#236,.T.);
#145=EDGE_CURVE('',#196,#199,#237,.T.);
#146=EDGE_CURVE('',#200,#199,#238,.T.);
#147=EDGE_CURVE('',#197,#200,#239,.T.);
#148=EDGE_CURVE('',#199,#201,#12,.T.);
#149=EDGE_CURVE('',#202,#201,#240,.T.);
#150=EDGE_CURVE('',#200,#202,#13,.T.);
#151=EDGE_CURVE('',#201,#203,#241,.T.);
#152=EDGE_CURVE('',#204,#203,#242,.T.);
#153=EDGE_CURVE('',#202,#204,#243,.T.);
#154=EDGE_CURVE('',#203,#205,#244,.T.);
#155=EDGE_CURVE('',#206,#205,#245,.T.);
#156=EDGE_CURVE('',#204,#206,#246,.T.);
#157=EDGE_CURVE('',#205,#207,#247,.T.);
#158=EDGE_CURVE('',#208,#207,#248,.T.);
#159=EDGE_CURVE('',#206,#208,#249,.T.);
#160=EDGE_CURVE('',#207,#209,#14,.T.);
#161=EDGE_CURVE('',#210,#209,#250,.T.);
#162=EDGE_CURVE('',#208,#210,#15,.T.);
#163=EDGE_CURVE('',#209,#211,#251,.T.);
#164=EDGE_CURVE('',#212,#211,#252,.T.);
#165=EDGE_CURVE('',#210,#212,#253,.T.);
#166=EDGE_CURVE('',#211,#213,#254,.T.);
#167=EDGE_CURVE('',#214,#213,#255,.T.);
#168=EDGE_CURVE('',#212,#214,#256,.T.);
#169=EDGE_CURVE('',#213,#215,#257,.T.);
#170=EDGE_CURVE('',#216,#215,#258,.T.);
#171=EDGE_CURVE('',#214,#216,#259,.T.);
#172=EDGE_CURVE('',#215,#217,#16,.T.);
#173=EDGE_CURVE('',#218,#217,#260,.T.);
#174=EDGE_CURVE('',#216,#218,#17,.T.);
#175=EDGE_CURVE('',#217,#219,#261,.T.);
#176=EDGE_CURVE('',#220,#219,#262,.T.);
#177=EDGE_CURVE('',#218,#220,#263,.T.);
#178=EDGE_CURVE('',#219,#221,#264,.T.);
#179=EDGE_CURVE('',#222,#221,#265,.T.);
#180=EDGE_CURVE('',#220,#222,#266,.T.);
#181=EDGE_CURVE('',#221,#223,#267,.T.);
#182=EDGE_CURVE('',#224,#223,#268,.T.);
#183=EDGE_CURVE('',#222,#224,#269,.T.);
#184=EDGE_CURVE('',#223,#225,#18,.T.);
#185=EDGE_CURVE('',#226,#225,#270,.T.);
#186=EDGE_CURVE('',#224,#226,#19,.T.);
#187=EDGE_CURVE('',#227,#227,#20,.T.);
#188=EDGE_CURVE('',#228,#228,#21,.T.);
#189=EDGE_CURVE('',#229,#229,#22,.T.);
#190=EDGE_CURVE('',#230,#230,#23,.T.);
#191=EDGE_CURVE('',#225,#195,#271,.T.);
#192=EDGE_CURVE('',#226,#198,#272,.T.);
#193=EDGE_CURVE('',#231,#231,#24,.T.);
#194=EDGE_CURVE('',#232,#232,#25,.T.);
#195=VERTEX_POINT('',#573);
#196=VERTEX_POINT('',#574);
#197=VERTEX_POINT('',#576);
#198=VERTEX_POINT('',#578);
#199=VERTEX_POINT('',#582);
#200=VERTEX_POINT('',#584);
#201=VERTEX_POINT('',#588);
#202=VERTEX_POINT('',#590);
#203=VERTEX_POINT('',#594);
#204=VERTEX_POINT('',#596);
#205=VERTEX_POINT('',#600);
#206=VERTEX_POINT('',#602);
#207=VERTEX_POINT('',#606);
#208=VERTEX_POINT('',#608);
#209=VERTEX_POINT('',#612);
#210=VERTEX_POINT('',#614);
#211=VERTEX_POINT('',#618);
#212=VERTEX_POINT('',#620);
#213=VERTEX_POINT('',#624);
#214=VERTEX_POINT('',#626);
#215=VERTEX_POINT('',#630);
#216=VERTEX_POINT('',#632);
#217=VERTEX_POINT('',#636);
#218=VERTEX_POINT('',#638);
#219=VERTEX_POINT('',#642);
#220=VERTEX_POINT('',#644);
#221=VERTEX_POINT('',#648);
#222=VERTEX_POINT('',#650);
#223=VERTEX_POINT('',#654);
#224=VERTEX_POINT('',#656);
#225=VERTEX_POINT('',#660);
#226=VERTEX_POINT('',#662);
#227=VERTEX_POINT('',#666);
#228=VERTEX_POINT('',#668);
#229=VERTEX_POINT('',#671);
#230=VERTEX_POINT('',#673);
#231=VERTEX_POINT('',#679);
#232=VERTEX_POINT('',#681);
#233=LINE('',#572,#273);
#234=LINE('',#575,#274);
#235=LINE('',#577,#275);
#236=LINE('',#579,#276);
#237=LINE('',#581,#277);
#238=LINE('',#583,#278);
#239=LINE('',#585,#279);
#240=LINE('',#589,#280);
#241=LINE('',#593,#281);
#242=LINE('',#595,#282);
#243=LINE('',#597,#283);
#244=LINE('',#599,#284);
#245=LINE('',#601,#285);
#246=LINE('',#603,#286);
#247=LINE('',#605,#287);
#248=LINE('',#607,#288);
#249=LINE('',#609,#289);
#250=LINE('',#613,#290);
#251=LINE('',#617,#291);
#252=LINE('',#619,#292);
#253=LINE('',#621,#293);
#254=LINE('',#623,#294);
#255=LINE('',#625,#295);
#256=LINE('',#627,#296);
#257=LINE('',#629,#297);
#258=LINE('',#631,#298);
#259=LINE('',#633,#299);
#260=LINE('',#637,#300);
#261=LINE('',#641,#301);
#262=LINE('',#643,#302);
#263=LINE('',#645,#303);
#264=LINE('',#647,#304);
#265=LINE('',#649,#305);
#266=LINE('',#651,#306);
#267=LINE('',#653,#307);
#268=LINE('',#655,#308);
#269=LINE('',#657,#309);
#270=LINE('',#661,#310);
#271=LINE('',#675,#311);
#272=LINE('',#676,#312);
#273=VECTOR('',#462,1.);
#274=VECTOR('',#463,1.);
#275=VECTOR('',#464,1.);
#276=VECTOR('',#465,1.);
#277=VECTOR('',#468,1.);
#278=VECTOR('',#469,1.);
#279=VECTOR('',#470,1.);
#280=VECTOR('',#475,1.);
#281=VECTOR('',#480,1.);
#282=VECTOR('',#481,1.);
#283=VECTOR('',#482,1.);
#284=VECTOR('',#485,1.);
#285=VECTOR('',#486,1.);
#286=VECTOR('',#487,1.);
#287=VECTOR('',#490,1.);
#288=VECTOR('',#491,1.);
#289=VECTOR('',#492,1.);
#290=VECTOR('',#497,1.);
#291=VECTOR('',#502,1.);
#292=VECTOR('',#503,1.);
#293=VECTOR('',#504,1.);
#294=VECTOR('',#507,1.);
#295=VECTOR('',#508,1.);
#296=VECTOR('',#509,1.);
#297=VECTOR('',#512,1.);
#298=VECTOR('',#513,1.);
#299=VECTOR('',#514,1.);
#300=VECTOR('',#519,1.);
#301=VECTOR('',#524,1.);
#302=VECTOR('',#525,1.);
#303=VECTOR('',#526,1.);
#304=VECTOR('',#529,1.);
#305=VECTOR('',#530,1.);
#306=VECTOR('',#531,1.);
#307=VECTOR('',#534,1.);
#308=VECTOR('',#535,1.);
#309=VECTOR('',#536,1.);
#310=VECTOR('',#541,1.);
#311=VECTOR('',#558,1.);
#312=VECTOR('',#559,1.);
#313=EDGE_LOOP('',(#33,#34,#35,#36));
#314=EDGE_LOOP('',(#37,#38,#39,#40));
#315=EDGE_LOOP('',(#41,#42,#43,#44));
#316=EDGE_LOOP('',(#45,#46,#47,#48));
#317=EDGE_LOOP('',(#49,#50,#51,#52));
#318=EDGE_LOOP('',(#53,#54,#55,#56));
#319=EDGE_LOOP('',(#57,#58,#59,#60));
#320=EDGE_LOOP('',(#61,#62,#63,#64));
#321=EDGE_LOOP('',(#65,#66,#67,#68));
#322=EDGE_LOOP('',(#69,#70,#71,#72));
#323=EDGE_LOOP('',(#73,#74,#75,#76));
#324=EDGE_LOOP('',(#77,#78,#79,#80));
#325=EDGE_LOOP('',(#81,#82,#83,#84));
#326=EDGE_LOOP('',(#85,#86,#87,#88));
#327=EDGE_LOOP('',(#89,#90,#91,#92));
#328=EDGE_LOOP('',(#93));
#329=EDGE_LOOP('',(#94));
#330=EDGE_LOOP('',(#95));
#331=EDGE_LOOP('',(#96));
#332=EDGE_LOOP('',(#97,#98,#99,#100));
#333=EDGE_LOOP('',(#101));
#334=EDGE_LOOP('',(#102));
#335=EDGE_LOOP('',(#103,#104,#105,#106,#107,#108,#109,#110,#111,#112,#113,
#114,#115,#116,#117,#118));
#336=EDGE_LOOP('',(#119));
#337=EDGE_LOOP('',(#120));
#338=EDGE_LOOP('',(#121));
#339=EDGE_LOOP('',(#122,#123,#124,#125,#126,#127,#128,#129,#130,#131,#132,
#133,#134,#135,#136,#137));
#340=EDGE_LOOP('',(#138));
#341=EDGE_LOOP('',(#139));
#342=EDGE_LOOP('',(#140));
#343=FACE_BOUND('',#313,.T.);
#344=FACE_BOUND('',#314,.T.);
#345=FACE_BOUND('',#315,.T.);
#346=FACE_BOUND('',#316,.T.);
#347=FACE_BOUND('',#317,.T.);
#348=FACE_BOUND('',#318,.T.);
#349=FACE_BOUND('',#319,.T.);
#350=FACE_BOUND('',#320,.T.);
#351=FACE_BOUND('',#321,.T.);
#352=FACE_BOUND('',#322,.T.);
#353=FACE_BOUND('',#323,.T.);
#354=FACE_BOUND('',#324,.T.);
#355=FACE_BOUND('',#325,.T.);
#356=FACE_BOUND('',#326,.T.);
#357=FACE_BOUND('',#327,.T.);
#358=FACE_BOUND('',#328,.T.);
#359=FACE_BOUND('',#329,.T.);
#360=FACE_BOUND('',#330,.T.);
#361=FACE_BOUND('',#331,.T.);
#362=FACE_BOUND('',#332,.T.);
#363=FACE_BOUND('',#333,.T.);
#364=FACE_BOUND('',#334,.T.);
#365=FACE_BOUND('',#335,.T.);
#366=FACE_BOUND('',#336,.T.);
#367=FACE_BOUND('',#337,.T.);
#368=FACE_BOUND('',#338,.T.);
#369=FACE_BOUND('',#339,.T.);
#370=FACE_BOUND('',#340,.T.);
#371=FACE_BOUND('',#341,.T.);
#372=FACE_BOUND('',#342,.T.);
#373=PLANE('',#423);
#374=PLANE('',#424);
#375=PLANE('',#428);
#376=PLANE('',#429);
#377=PLANE('',#430);
#378=PLANE('',#434);
#379=PLANE('',#435);
#380=PLANE('',#436);
#381=PLANE('',#440);
#382=PLANE('',#441);
#383=PLANE('',#442);
#384=PLANE('',#452);
#385=PLANE('',#456);
#386=PLANE('',#457);
#387=ADVANCED_FACE('',(#343),#373,.F.);
#388=ADVANCED_FACE('',(#344),#374,.F.);
#389=ADVANCED_FACE('',(#345),#26,.T.);
#390=ADVANCED_FACE('',(#346),#375,.F.);
#391=ADVANCED_FACE('',(#347),#376,.F.);
#392=ADVANCED_FACE('',(#348),#377,.F.);
#393=ADVANCED_FACE('',(#349),#27,.T.);
#394=ADVANCED_FACE('',(#350),#378,.F.);
#395=ADVANCED_FACE('',(#351),#379,.F.);
#396=ADVANCED_FACE('',(#352),#380,.F.);
#397=ADVANCED_FACE('',(#353),#28,.T.);
#398=ADVANCED_FACE('',(#354),#381,.F.);
#399=ADVANCED_FACE('',(#355),#382,.F.);
#400=ADVANCED_FACE('',(#356),#383,.F.);
#401=ADVANCED_FACE('',(#357),#29,.T.);
#402=ADVANCED_FACE('',(#358,#359),#30,.F.);
#403=ADVANCED_FACE('',(#360,#361),#31,.F.);
#404=ADVANCED_FACE('',(#362),#384,.F.);
#405=ADVANCED_FACE('',(#363,#364),#32,.F.);
#406=ADVANCED_FACE('',(#365,#366,#367,#368),#385,.T.);
#407=ADVANCED_FACE('',(#369,#370,#371,#372),#386,.F.);
#408=CLOSED_SHELL('',(#387,#388,#389,#390,#391,#392,#393,#394,#395,#396,
#397,#398,#399,#400,#401,#402,#403,#404,#405,#406,#407));
#409=STYLED_ITEM('',(#410),#419);
#410=PRESENTATION_STYLE_ASSIGNMENT((#411));
#411=SURFACE_STYLE_USAGE(.BOTH.,#412);
#412=SURFACE_SIDE_STYLE('',(#415,#413));
#413=SURFACE_STYLE_RENDERING_WITH_PROPERTIES(.CONSTANT_SHADING.,#418,(#414));
#414=SURFACE_STYLE_TRANSPARENT(0.650980392156863);
#415=SURFACE_STYLE_FILL_AREA(#416);
#416=FILL_AREA_STYLE('',(#417));
#417=FILL_AREA_STYLE_COLOUR('',#418);
#418=COLOUR_RGB('',0.647058823529412,0.647058823529412,0.647058823529412);
#419=MANIFOLD_SOLID_BREP('v2_lid',#408);
#420=SHAPE_DEFINITION_REPRESENTATION(#690,#421);
#421=SHAPE_REPRESENTATION('v2_lid',(#422),#685);
#422=AXIS2_PLACEMENT_3D('',#570,#458,#459);
#423=AXIS2_PLACEMENT_3D('',#571,#460,#461);
#424=AXIS2_PLACEMENT_3D('',#580,#466,#467);
#425=AXIS2_PLACEMENT_3D('',#586,#471,#472);
#426=AXIS2_PLACEMENT_3D('',#587,#473,#474);
#427=AXIS2_PLACEMENT_3D('',#591,#476,#477);
#428=AXIS2_PLACEMENT_3D('',#592,#478,#479);
#429=AXIS2_PLACEMENT_3D('',#598,#483,#484);
#430=AXIS2_PLACEMENT_3D('',#604,#488,#489);
#431=AXIS2_PLACEMENT_3D('',#610,#493,#494);
#432=AXIS2_PLACEMENT_3D('',#611,#495,#496);
#433=AXIS2_PLACEMENT_3D('',#615,#498,#499);
#434=AXIS2_PLACEMENT_3D('',#616,#500,#501);
#435=AXIS2_PLACEMENT_3D('',#622,#505,#506);
#436=AXIS2_PLACEMENT_3D('',#628,#510,#511);
#437=AXIS2_PLACEMENT_3D('',#634,#515,#516);
#438=AXIS2_PLACEMENT_3D('',#635,#517,#518);
#439=AXIS2_PLACEMENT_3D('',#639,#520,#521);
#440=AXIS2_PLACEMENT_3D('',#640,#522,#523);
#441=AXIS2_PLACEMENT_3D('',#646,#527,#528);
#442=AXIS2_PLACEMENT_3D('',#652,#532,#533);
#443=AXIS2_PLACEMENT_3D('',#658,#537,#538);
#444=AXIS2_PLACEMENT_3D('',#659,#539,#540);
#445=AXIS2_PLACEMENT_3D('',#663,#542,#543);
#446=AXIS2_PLACEMENT_3D('',#664,#544,#545);
#447=AXIS2_PLACEMENT_3D('',#665,#546,#547);
#448=AXIS2_PLACEMENT_3D('',#667,#548,#549);
#449=AXIS2_PLACEMENT_3D('',#669,#550,#551);
#450=AXIS2_PLACEMENT_3D('',#670,#552,#553);
#451=AXIS2_PLACEMENT_3D('',#672,#554,#555);
#452=AXIS2_PLACEMENT_3D('',#674,#556,#557);
#453=AXIS2_PLACEMENT_3D('',#677,#560,#561);
#454=AXIS2_PLACEMENT_3D('',#678,#562,#563);
#455=AXIS2_PLACEMENT_3D('',#680,#564,#565);
#456=AXIS2_PLACEMENT_3D('',#682,#566,#567);
#457=AXIS2_PLACEMENT_3D('',#683,#568,#569);
#458=DIRECTION('',(0.,0.,1.));
#459=DIRECTION('',(1.,0.,0.));
#460=DIRECTION('',(1.,0.,0.));
#461=DIRECTION('',(0.,0.,-1.));
#462=DIRECTION('',(0.,-1.,0.));
#463=DIRECTION('',(0.,0.,-1.));
#464=DIRECTION('',(0.,-1.,0.));
#465=DIRECTION('',(0.,0.,-1.));
#466=DIRECTION('',(0.999946625604079,0.0103317928267562,0.));
#467=DIRECTION('',(-0.0103317928267562,0.99994662560408,0.));
#468=DIRECTION('',(0.0103317928267562,-0.999946625604079,0.));
#469=DIRECTION('',(0.,0.,-1.));
#470=DIRECTION('',(0.0103317928267562,-0.999946625604079,0.));
#471=DIRECTION('',(0.,0.,-1.));
#472=DIRECTION('',(-1.,0.,0.));
#473=DIRECTION('',(0.,0.,1.));
#474=DIRECTION('',(1.,0.,0.));
#475=DIRECTION('',(0.,0.,-1.));
#476=DIRECTION('',(0.,0.,1.));
#477=DIRECTION('',(1.,0.,0.));
#478=DIRECTION('',(0.0103317928267686,0.999946625604079,0.));
#479=DIRECTION('',(-0.999946625604079,0.0103317928267686,0.));
#480=DIRECTION('',(0.999946625604079,-0.0103317928267686,0.));
#481=DIRECTION('',(0.,0.,-1.));
#482=DIRECTION('',(0.999946625604079,-0.0103317928267686,0.));
#483=DIRECTION('',(0.,1.,0.));
#484=DIRECTION('',(0.,0.,1.));
#485=DIRECTION('',(1.,0.,0.));
#486=DIRECTION('',(0.,0.,-1.));
#487=DIRECTION('',(1.,0.,0.));
#488=DIRECTION('',(-0.0103317928267073,0.99994662560408,0.));
#489=DIRECTION('',(-0.99994662560408,-0.0103317928267073,0.));
#490=DIRECTION('',(0.99994662560408,0.0103317928267073,0.));
#491=DIRECTION('',(0.,0.,-1.));
#492=DIRECTION('',(0.99994662560408,0.0103317928267073,0.));
#493=DIRECTION('',(0.,0.,-1.));
#494=DIRECTION('',(-1.,0.,0.));
#495=DIRECTION('',(0.,0.,1.));
#496=DIRECTION('',(1.,0.,0.));
#497=DIRECTION('',(0.,0.,-1.));
#498=DIRECTION('',(0.,0.,1.));
#499=DIRECTION('',(1.,0.,0.));
#500=DIRECTION('',(-0.999946625604079,0.0103317928267822,0.));
#501=DIRECTION('',(-0.0103317928267822,-0.999946625604079,0.));
#502=DIRECTION('',(0.0103317928267822,0.999946625604079,0.));
#503=DIRECTION('',(0.,0.,-1.));
#504=DIRECTION('',(0.0103317928267822,0.999946625604079,0.));
#505=DIRECTION('',(-1.,0.,0.));
#506=DIRECTION('',(0.,0.,1.));
#507=DIRECTION('',(0.,1.,0.));
#508=DIRECTION('',(0.,0.,-1.));
#509=DIRECTION('',(0.,1.,0.));
#510=DIRECTION('',(-0.999946625604079,-0.0103317928267579,0.));
#511=DIRECTION('',(0.0103317928267579,-0.99994662560408,0.));
#512=DIRECTION('',(-0.0103317928267579,0.999946625604079,0.));
#513=DIRECTION('',(0.,0.,-1.));
#514=DIRECTION('',(-0.0103317928267579,0.999946625604079,0.));
#515=DIRECTION('',(0.,0.,-1.));
#516=DIRECTION('',(-1.,0.,0.));
#517=DIRECTION('',(0.,0.,1.));
#518=DIRECTION('',(1.,0.,0.));
#519=DIRECTION('',(0.,0.,-1.));
#520=DIRECTION('',(0.,0.,1.));
#521=DIRECTION('',(1.,0.,0.));
#522=DIRECTION('',(-0.0103317928267008,-0.99994662560408,0.));
#523=DIRECTION('',(0.99994662560408,-0.0103317928267008,0.));
#524=DIRECTION('',(-0.99994662560408,0.0103317928267008,0.));
#525=DIRECTION('',(0.,0.,-1.));
#526=DIRECTION('',(-0.99994662560408,0.0103317928267008,0.));
#527=DIRECTION('',(0.,-1.,0.));
#528=DIRECTION('',(0.,0.,-1.));
#529=DIRECTION('',(-1.,0.,0.));
#530=DIRECTION('',(0.,0.,-1.));
#531=DIRECTION('',(-1.,0.,0.));
#532=DIRECTION('',(0.010331792826702,-0.99994662560408,0.));
#533=DIRECTION('',(0.99994662560408,0.010331792826702,0.));
#534=DIRECTION('',(-0.99994662560408,-0.010331792826702,0.));
#535=DIRECTION('',(0.,0.,-1.));
#536=DIRECTION('',(-0.99994662560408,-0.010331792826702,0.));
#537=DIRECTION('',(0.,0.,-1.));
#538=DIRECTION('',(-1.,0.,0.));
#539=DIRECTION('',(0.,0.,1.));
#540=DIRECTION('',(1.,0.,0.));
#541=DIRECTION('',(0.,0.,-1.));
#542=DIRECTION('',(0.,0.,1.));
#543=DIRECTION('',(1.,0.,0.));
#544=DIRECTION('',(0.,0.,-1.));
#545=DIRECTION('',(-1.,0.,0.));
#546=DIRECTION('',(0.,0.,1.));
#547=DIRECTION('',(1.,0.,0.));
#548=DIRECTION('',(0.,0.,1.));
#549=DIRECTION('',(1.,0.,0.));
#550=DIRECTION('',(0.,0.,-1.));
#551=DIRECTION('',(-1.,0.,0.));
#552=DIRECTION('',(0.,0.,-1.));
#553=DIRECTION('',(-1.,0.,0.));
#554=DIRECTION('',(0.,0.,-1.));
#555=DIRECTION('',(-1.,0.,0.));
#556=DIRECTION('',(0.999946625604079,-0.0103317928267579,0.));
#557=DIRECTION('',(0.0103317928267579,0.99994662560408,0.));
#558=DIRECTION('',(-0.0103317928267579,-0.999946625604079,0.));
#559=DIRECTION('',(-0.0103317928267579,-0.999946625604079,0.));
#560=DIRECTION('',(0.,0.,-1.));
#561=DIRECTION('',(-1.,0.,0.));
#562=DIRECTION('',(0.,0.,1.));
#563=DIRECTION('',(1.,0.,0.));
#564=DIRECTION('',(0.,0.,1.));
#565=DIRECTION('',(1.,0.,0.));
#566=DIRECTION('',(0.,0.,1.));
#567=DIRECTION('',(1.,0.,0.));
#568=DIRECTION('',(0.,0.,1.));
#569=DIRECTION('',(1.,0.,0.));
#570=CARTESIAN_POINT('',(0.,0.,0.));
#571=CARTESIAN_POINT('',(0.134,-0.088200000315575,0.014245));
#572=CARTESIAN_POINT('',(0.134,-0.088200000315575,0.011245));
#573=CARTESIAN_POINT('',(0.134,-0.086,0.011245));
#574=CARTESIAN_POINT('',(0.134,-0.124,0.011245));
#575=CARTESIAN_POINT('',(0.134,-0.124,0.014245));
#576=CARTESIAN_POINT('',(0.134,-0.124,0.014245));
#577=CARTESIAN_POINT('',(0.134,-0.088200000315575,0.014245));
#578=CARTESIAN_POINT('',(0.134,-0.086,0.014245));
#579=CARTESIAN_POINT('',(0.134,-0.086,0.014245));
#580=CARTESIAN_POINT('',(0.1340012815,-0.124124028,0.014245));
#581=CARTESIAN_POINT('',(0.1340012815,-0.124124028,0.011245));
#582=CARTESIAN_POINT('',(0.134002563,-0.124248056,0.011245));
#583=CARTESIAN_POINT('',(0.134002563,-0.124248056,0.014245));
#584=CARTESIAN_POINT('',(0.134002563,-0.124248056,0.014245));
#585=CARTESIAN_POINT('',(0.1340012815,-0.124124028,0.014245));
#586=CARTESIAN_POINT('',(0.14000000063115,-0.1239999993688,0.014245));
#587=CARTESIAN_POINT('',(0.14000000063115,-0.1239999993688,0.011245));
#588=CARTESIAN_POINT('',(0.139751944000003,-0.129997436999953,0.011245));
#589=CARTESIAN_POINT('',(0.139751944000003,-0.129997436999953,0.014245));
#590=CARTESIAN_POINT('',(0.139751944000003,-0.129997436999953,0.014245));
#591=CARTESIAN_POINT('',(0.14000000063115,-0.1239999993688,0.014245));
#592=CARTESIAN_POINT('',(0.139875972000001,-0.1299987185,0.014245));
#593=CARTESIAN_POINT('',(0.139875972000001,-0.1299987185,0.011245));
#594=CARTESIAN_POINT('',(0.14,-0.13,0.011245));
#595=CARTESIAN_POINT('',(0.14,-0.13,0.014245));
#596=CARTESIAN_POINT('',(0.14,-0.13,0.014245));
#597=CARTESIAN_POINT('',(0.139875972000001,-0.1299987185,0.014245));
#598=CARTESIAN_POINT('',(0.158999999999995,-0.13,0.014245));
#599=CARTESIAN_POINT('',(0.158999999999995,-0.13,0.011245));
#600=CARTESIAN_POINT('',(0.178,-0.13,0.011245));
#601=CARTESIAN_POINT('',(0.178,-0.13,0.014245));
#602=CARTESIAN_POINT('',(0.178,-0.13,0.014245));
#603=CARTESIAN_POINT('',(0.158999999999995,-0.13,0.014245));
#604=CARTESIAN_POINT('',(0.178124028,-0.1299987185,0.014245));
#605=CARTESIAN_POINT('',(0.178124028,-0.1299987185,0.011245));
#606=CARTESIAN_POINT('',(0.178248055999999,-0.129997437,0.011245));
#607=CARTESIAN_POINT('',(0.178248055999999,-0.129997437,0.014245));
#608=CARTESIAN_POINT('',(0.178248055999999,-0.129997437,0.014245));
#609=CARTESIAN_POINT('',(0.178124028,-0.1299987185,0.014245));
#610=CARTESIAN_POINT('',(0.17799999936884,-0.1239999993688,0.014245));
#611=CARTESIAN_POINT('',(0.17799999936884,-0.1239999993688,0.011245));
#612=CARTESIAN_POINT('',(0.18399743699999,-0.124248055999999,0.011245));
#613=CARTESIAN_POINT('',(0.18399743699999,-0.124248055999999,0.014245));
#614=CARTESIAN_POINT('',(0.18399743699999,-0.124248055999999,0.014245));
#615=CARTESIAN_POINT('',(0.17799999936884,-0.1239999993688,0.014245));
#616=CARTESIAN_POINT('',(0.1839987185,-0.124124028,0.014245));
#617=CARTESIAN_POINT('',(0.1839987185,-0.124124028,0.011245));
#618=CARTESIAN_POINT('',(0.184,-0.124,0.011245));
#619=CARTESIAN_POINT('',(0.184,-0.124,0.014245));
#620=CARTESIAN_POINT('',(0.184,-0.124,0.014245));
#621=CARTESIAN_POINT('',(0.1839987185,-0.124124028,0.014245));
#622=CARTESIAN_POINT('',(0.184,-0.1027999996844,0.014245));
#623=CARTESIAN_POINT('',(0.184,-0.1027999996844,0.011245));
#624=CARTESIAN_POINT('',(0.184,-0.086,0.011245));
#625=CARTESIAN_POINT('',(0.184,-0.086,0.014245));
#626=CARTESIAN_POINT('',(0.184,-0.086,0.014245));
#627=CARTESIAN_POINT('',(0.184,-0.1027999996844,0.014245));
#628=CARTESIAN_POINT('',(0.1839987185,-0.085875972,0.014245));
#629=CARTESIAN_POINT('',(0.1839987185,-0.085875972,0.011245));
#630=CARTESIAN_POINT('',(0.183997437,-0.085751944,0.011245));
#631=CARTESIAN_POINT('',(0.183997437,-0.085751944,0.014245));
#632=CARTESIAN_POINT('',(0.183997437,-0.085751944,0.014245));
#633=CARTESIAN_POINT('',(0.1839987185,-0.085875972,0.014245));
#634=CARTESIAN_POINT('',(0.17799999936884,-0.08600000063115,0.014245));
#635=CARTESIAN_POINT('',(0.17799999936884,-0.08600000063115,0.011245));
#636=CARTESIAN_POINT('',(0.178248056,-0.0800025629999979,0.011245));
#637=CARTESIAN_POINT('',(0.178248056,-0.0800025629999979,0.014245));
#638=CARTESIAN_POINT('',(0.178248056,-0.0800025629999979,0.014245));
#639=CARTESIAN_POINT('',(0.17799999936884,-0.08600000063115,0.014245));
#640=CARTESIAN_POINT('',(0.178124028,-0.0800012815,0.014245));
#641=CARTESIAN_POINT('',(0.178124028,-0.0800012815,0.011245));
#642=CARTESIAN_POINT('',(0.178,-0.08,0.011245));
#643=CARTESIAN_POINT('',(0.178,-0.08,0.014245));
#644=CARTESIAN_POINT('',(0.178,-0.08,0.014245));
#645=CARTESIAN_POINT('',(0.178124028,-0.0800012815,0.014245));
#646=CARTESIAN_POINT('',(0.142200000315575,-0.08,0.014245));
#647=CARTESIAN_POINT('',(0.142200000315575,-0.08,0.011245));
#648=CARTESIAN_POINT('',(0.14,-0.08,0.011245));
#649=CARTESIAN_POINT('',(0.14,-0.08,0.014245));
#650=CARTESIAN_POINT('',(0.14,-0.08,0.014245));
#651=CARTESIAN_POINT('',(0.142200000315575,-0.08,0.014245));
#652=CARTESIAN_POINT('',(0.139875972,-0.0800012815,0.014245));
#653=CARTESIAN_POINT('',(0.139875972,-0.0800012815,0.011245));
#654=CARTESIAN_POINT('',(0.139751944,-0.0800025629999975,0.011245));
#655=CARTESIAN_POINT('',(0.139751944,-0.0800025629999975,0.014245));
#656=CARTESIAN_POINT('',(0.139751944,-0.0800025629999975,0.014245));
#657=CARTESIAN_POINT('',(0.139875972,-0.0800012815,0.014245));
#658=CARTESIAN_POINT('',(0.14000000063115,-0.08600000063115,0.014245));
#659=CARTESIAN_POINT('',(0.14000000063115,-0.08600000063115,0.011245));
#660=CARTESIAN_POINT('',(0.134002563,-0.085751944,0.011245));
#661=CARTESIAN_POINT('',(0.134002563,-0.085751944,0.014245));
#662=CARTESIAN_POINT('',(0.134002563,-0.085751944,0.014245));
#663=CARTESIAN_POINT('',(0.14000000063115,-0.08600000063115,0.014245));
#664=CARTESIAN_POINT('',(0.178,-0.124,0.014245));
#665=CARTESIAN_POINT('',(0.178,-0.124,0.014245));
#666=CARTESIAN_POINT('',(0.179587462,-0.124,0.014245));
#667=CARTESIAN_POINT('',(0.178,-0.124,0.011245));
#668=CARTESIAN_POINT('',(0.179587462,-0.124,0.011245));
#669=CARTESIAN_POINT('',(0.14000000063115,-0.08600000063115,0.014245));
#670=CARTESIAN_POINT('',(0.14000000063115,-0.08600000063115,0.014245));
#671=CARTESIAN_POINT('',(0.13835000063115,-0.08600000063115,0.014245));
#672=CARTESIAN_POINT('',(0.14000000063115,-0.08600000063115,0.011245));
#673=CARTESIAN_POINT('',(0.13835000063115,-0.08600000063115,0.011245));
#674=CARTESIAN_POINT('',(0.1340012815,-0.085875972,0.014245));
#675=CARTESIAN_POINT('',(0.1340012815,-0.085875972,0.011245));
#676=CARTESIAN_POINT('',(0.1340012815,-0.085875972,0.014245));
#677=CARTESIAN_POINT('',(0.14,-0.124,0.014245));
#678=CARTESIAN_POINT('',(0.14,-0.124,0.014245));
#679=CARTESIAN_POINT('',(0.141587462,-0.124,0.014245));
#680=CARTESIAN_POINT('',(0.14,-0.124,0.011245));
#681=CARTESIAN_POINT('',(0.141587462,-0.124,0.011245));
#682=CARTESIAN_POINT('',(0.159,-0.105,0.014245));
#683=CARTESIAN_POINT('',(0.159,-0.105,0.011245));
#684=MECHANICAL_DESIGN_GEOMETRIC_PRESENTATION_REPRESENTATION('',(#409),
#685);
#685=(
GEOMETRIC_REPRESENTATION_CONTEXT(3)
GLOBAL_UNCERTAINTY_ASSIGNED_CONTEXT((#686))
GLOBAL_UNIT_ASSIGNED_CONTEXT((#689,#688,#687))
REPRESENTATION_CONTEXT('v2_lid','TOP_LEVEL_ASSEMBLY_PART')
);
#686=UNCERTAINTY_MEASURE_WITH_UNIT(LENGTH_MEASURE(1.E-8),#689,
'DISTANCE_ACCURACY_VALUE','Maximum Tolerance applied to model');
#687=(
NAMED_UNIT(*)
SI_UNIT($,.STERADIAN.)
SOLID_ANGLE_UNIT()
);
#688=(
NAMED_UNIT(*)
PLANE_ANGLE_UNIT()
SI_UNIT($,.RADIAN.)
);
#689=(
LENGTH_UNIT()
NAMED_UNIT(*)
SI_UNIT($,.METRE.)
);
#690=PRODUCT_DEFINITION_SHAPE('','',#691);
#691=PRODUCT_DEFINITION('','',#693,#692);
#692=PRODUCT_DEFINITION_CONTEXT('',#699,'design');
#693=PRODUCT_DEFINITION_FORMATION_WITH_SPECIFIED_SOURCE('','',#695,
 .NOT_KNOWN.);
#694=PRODUCT_RELATED_PRODUCT_CATEGORY('','',(#695));
#695=PRODUCT('v2_lid','v2_lid','v2_lid',(#697));
#696=PRODUCT_CATEGORY('','');
#697=PRODUCT_CONTEXT('',#699,'mechanical');
#698=APPLICATION_PROTOCOL_DEFINITION('international standard',
'ap242_managed_model_based_3d_engineering',2020,#699);
#699=APPLICATION_CONTEXT('managed model based 3d engineering');
ENDSEC;
END-ISO-10303-21;
